<svg id="Layer_1" data-name="Layer 1" xmlns="http://www.w3.org/2000/svg" viewBox="0 0 588.19 129.76"><defs><style>.cls-1,.cls-2{fill:#ee3524;}.cls-2{fill-rule:evenodd;}</style></defs><title>Artboard 2</title><path class="cls-1" d="M429.95,129.76h0c0-1.39,1.86-4.33,2.55-5.44.24-.38.41-.67.48-.81,2.43-4.51,5-9.4,8.16-15.82,4.53-9.08,5.76-13.13,8-23.32q.29-1.33.59-2.68a103.6,103.6,0,0,0,2.11-11.53l.49-4.54-3,3.41c-.12.14-.25.31-.37.48l-.14.2c-.28.33-.62.7-1,1.08a27.09,27.09,0,0,0-2,2.33,25.39,25.39,0,0,1-2.42,2.72c-.54.55-1.06,1.09-1.55,1.63a39,39,0,0,1-4.34,3.95,18,18,0,0,1-2.35,1.71l-.76.45a10.85,10.85,0,0,1-1.91,1,10.16,10.16,0,0,1-3,.55l-.46,0a5.39,5.39,0,0,1-2.5-1.33,18,18,0,0,1-2.67-3.53,8.52,8.52,0,0,1-.69-3.8c0-1.19.12-2.45.22-3.67l.06-.67A30.4,30.4,0,0,1,427,60.82a46.07,46.07,0,0,1,3.53-5.38,12.58,12.58,0,0,0,.78-1.27,11.2,11.2,0,0,1,.59-1,34.28,34.28,0,0,1,4-4.28l.39-.37c.58-.55,1.18-1.13,1.78-1.61.36-.28.7-.6,1-.9a7.66,7.66,0,0,1,1.18-1c.37-.22.82-.43,1.29-.65a18.32,18.32,0,0,0,1.72-.88,14.82,14.82,0,0,1,6.11-2.11,3,3,0,0,1,.43,0,3.54,3.54,0,0,1,1.74.58c.31.16.62.33,1,.47a6.36,6.36,0,0,0,.93.3,3.51,3.51,0,0,1,.56.18,13.75,13.75,0,0,1,1.88,1.55,6,6,0,0,1,.38.54A2.38,2.38,0,0,0,458,46.29l.32,0a3.15,3.15,0,0,0,1.43-.39,3.14,3.14,0,0,1,.63-.25A19.42,19.42,0,0,1,464,45.3a4.84,4.84,0,0,1,2.32.41,3,3,0,0,1,.5,1.84,22.3,22.3,0,0,1-.8,4.75l-.11.44c-.34,1.4-.63,2.83-.9,4.21-.4,2-.82,4.08-1.4,6-.22.74-.49,1.47-.76,2.17a25.48,25.48,0,0,0-.88,2.58c-.34,1.29-.75,2.6-1.16,3.87s-.82,2.6-1.16,3.9l-.18.74c-.17.68-.34,1.37-.56,2a23.65,23.65,0,0,1-1,2.19,17.09,17.09,0,0,0-1.21,3c-.25.94-.54,1.78-.85,2.66l-.33,1a7.64,7.64,0,0,0-.26,1.11,7.15,7.15,0,0,1-.18.81,6.69,6.69,0,0,1-.37,1.08,13.13,13.13,0,0,0-.52,1.3c-1.12,3.09-1.86,5.34-2.51,7.32a106,106,0,0,1-4.2,11.15c-1.92,4.3-7.78,17.42-16.91,19.82a2.61,2.61,0,0,1-.62.1Zm18.39-78.09c-2.58,0-4.3,1.89-5.69,3.41-.29.32-.57.64-.86.91a27.24,27.24,0,0,0-4.53,5.79c-.21.33-.44.65-.67,1a12.51,12.51,0,0,0-.91,1.34,24.07,24.07,0,0,0-1.07,2.29c-.29.67-.58,1.37-.92,2A19.53,19.53,0,0,0,431,75.76l-.22,2.34,2.2-.84a4.91,4.91,0,0,0,1.65-1.2l.38-.36a33.55,33.55,0,0,0,3.89-4,12.43,12.43,0,0,1,.89-.92c.34-.33.69-.67,1-1a16.31,16.31,0,0,0,1.13-1.59c.2-.32.41-.64.63-.95s.47-.61.71-.9a10.26,10.26,0,0,0,1.17-1.61,4.62,4.62,0,0,0,.27-.62,3.17,3.17,0,0,1,.22-.49,3.27,3.27,0,0,1,.46-.5,3.83,3.83,0,0,0,.77-.93,3.1,3.1,0,0,0,.3-.81,2.07,2.07,0,0,1,.14-.44,9.93,9.93,0,0,1,1.13-1.49,14.76,14.76,0,0,0,1-1.31c.28-.41.55-.86.82-1.32.16-.27.32-.54.49-.81l.18-.27a4,4,0,0,0,.9-2.29l0-1-1-.41a6.07,6.07,0,0,0-1.73-.28h0Z"/><path class="cls-2" d="M410.73,65.42c-.39-.07-.6.39-.83.62-1.54,1.51-2.93,3.48-4.54,5.1-.53.54-1.18.88-1.73,1.4-.88.83-1.46,2.1-2.37,2.93-.52.48-1,.83-1.5,1.31A34.64,34.64,0,0,1,395.51,81c-2.2,1.59-3.83,4-6.16,5.08a6.26,6.26,0,0,1-2.38.67c-.8,0-1.55-.9-2.36-.91-.51,0-.69.4-1.3.38-1.84-1.94-2.46-6.14-2.33-10.27a39.49,39.49,0,0,1,1.94-10.26,39,39,0,0,1,8.87-15.37c.91-1,2-2.1,3-3.12a26.46,26.46,0,0,1,6.8-4.69c2.17-1.18,4.83-2.76,8.21-2a11,11,0,0,1,3.63,1.79c1.34.91,2,.91,2.57,2.41.18.51.1,1,.43,1.24.54.38,2.09.32,3,.38,1.79.12,3.11.69,3.36,2.63a12.07,12.07,0,0,1-.28,2.77c-.07,1,.13,2.06.12,3,0,2.92-.84,5.42-1.17,8a36,36,0,0,1-2.05,7.09c-.25.74-.43,1.52-.69,2.28-.12.36-.43.74-.57,1.19s-.14,1-.25,1.43c-.26.9-.69,2-1,3.21a13.7,13.7,0,0,0-.72,3.37c.09.9,1.12,1.36,1,3-.11,1.08-1,2.37-2.24,2.26-.83-.07-1.29-1.14-1.79-2.11s-1.05-1.77-1.41-2.53a20.9,20.9,0,0,1-1.56-6.46C409.8,71.41,410.58,68.91,410.73,65.42Zm-6.15-12.85a27.11,27.11,0,0,0-3.23,2.13A53.5,53.5,0,0,0,397.62,59c-.62.7-1.26,1.38-1.87,2.13s-1.39,1.4-2,2.13a36.41,36.41,0,0,0-3.54,5.91c-1.06,2.13-2.26,4.27-3.06,6.3a4.78,4.78,0,0,0-.4,2.28c1.3,1,2.95-1.47,4.13-2.43a26,26,0,0,0,3.34-3.3c1-1.15,2.14-2.26,3.06-3.45s2.1-2.36,3-3.61c1.75-2.54,3.74-5,5.54-7.46,1.37-1.9,2.71-3.83,4.21-5.53.48-.55,1.21-1.13,1.15-1.91C409.16,49.05,406.41,51.43,404.59,52.58Z"/><path class="cls-2" d="M186.6,50c1.23-.08,1.9-1,2.6-1.65a22.28,22.28,0,0,1,2.2-2.08c.54-.35,1.23-.58,1.83-1,2.13-1.31,4.93-2.39,7.89-1.33,3.21,1.14,8,4.6,9.25,8.1,1,2.63,1,6.6.73,9.48-.44,4.84-2.07,9.24-2.69,13.56-.13.93-.24,2.19-.3,3.2-.08,1.2.14,2.4-.51,2.86-1.23.85-2.84-.33-3.54-1.09a29.36,29.36,0,0,1-2.48-2.72,12.77,12.77,0,0,1-1.79-6.76c-.18-6.21,1.6-11.5,2.33-17,.14-1.05.35-2.47-.62-3.31a16.06,16.06,0,0,0-5.09,3.48,15.81,15.81,0,0,0-2.1,2.16c-.62.8-1.38,1.5-1.92,2.24-1.79,2.47-3.32,5.27-5,7.83-.58.87-.9,1.8-1.42,2.74s-1.4,1.84-2,2.88a35.54,35.54,0,0,1-4.39,6.69c-1.22,1.45-3,4.11-5.52,2.6-.74-.44-1.28-1.76-1.93-2.67-.79-1.1-1.93-2-2.23-3.1a15.81,15.81,0,0,1,0-4.63,40.08,40.08,0,0,1,2.85-11.39c1.45-3.79,2.5-7,3.82-10.65.78-2.16,1.48-3.84,2.26-6.08.3-.86.37-2.69,1.34-2.64a11,11,0,0,1,5.26,2.32,6.38,6.38,0,0,1,1.89,3.3C187.51,47.23,186.05,48.1,186.6,50Z"/><path class="cls-2" d="M523,49.14c1.14,0,1.78-1,2.43-1.65a21.24,21.24,0,0,1,2.07-2.11c.51-.35,1.15-.57,1.71-.95,2-1.3,4.6-2.34,7.32-1.12,2.95,1.32,7.29,5.12,8.4,8.86.84,2.8.79,7,.49,10-.5,5.08-2.08,9.66-2.74,14.19-.14,1-.26,2.3-.34,3.36-.09,1.27.09,2.53-.52,3-1.15.86-2.62-.44-3.25-1.27a30.83,30.83,0,0,1-2.24-2.95,15.07,15.07,0,0,1-1.53-7.19c-.05-6.54,1.7-12.06,2.47-17.81.15-1.11.37-2.59-.51-3.51A14.51,14.51,0,0,0,532,53.47a15.39,15.39,0,0,0-2,2.2c-.59.82-1.3,1.53-1.81,2.29-1.71,2.54-3.17,5.43-4.8,8.08-.55.9-.87,1.87-1.37,2.84s-1.33,1.88-1.87,3A37.08,37.08,0,0,1,516,78.73c-1.15,1.48-2.81,4.22-5.15,2.55-.68-.48-1.15-1.9-1.73-2.88-.71-1.19-1.75-2.13-2-3.34a19,19,0,0,1,.1-4.88A46.39,46.39,0,0,1,510,58.28c1.41-3.94,2.44-7.28,3.73-11.08.76-2.25,1.44-4,2.2-6.32.29-.89.39-2.82,1.29-2.74a9.88,9.88,0,0,1,4.82,2.63,7.13,7.13,0,0,1,1.68,3.55C523.9,46.25,522.53,47.12,523,49.14Z"/><path class="cls-2" d="M30.44,23.86c.41-1.18,1.18-2.16,1.51-3.2.22-.7.22-1.45.5-2.18s.59-1.18.84-1.85c.47-1.24.86-3.05,1.6-3.79s3.3-1.24,4.79-1.68c.9-.27,1.88-.29,2.78-.5S44.21,10,45,9.9c1-.16,1.9-.1,2.78-.25S49.35,9.08,50.2,9C54,8.51,57.89,8.2,61.72,8a45.88,45.88,0,0,1,4.87-.42c1.8.09,4.25,1,5.72.34C72.1,6.2,70.23,5.43,68.87,4.6a20.49,20.49,0,0,0-4.62-2.19A59.31,59.31,0,0,0,44.9.06,50.15,50.15,0,0,0,32.37,2.42c-1.2.37-2.35.92-3.62,1.26-.56.15-1.29.13-1.85.34S25.67,5.12,25,5.44c-.91.42-1.91.6-2.86,1a15.26,15.26,0,0,0-2.52,1.43c-1.35.91-4,2.33-3.7,4.12.17.9,2.41,1.75,3.36,2,.73.21,1.8.17,2,.67.33.75-.87,2.52-1.26,3.36-.59,1.29-.92,2.46-1.35,3.45-1.95,4.59-3.86,8.93-5.63,13.71-.4,1.08-.9,2.24-1.35,3.45a17,17,0,0,1-1.34,3.53,7.49,7.49,0,0,1-2.61,1.43,57.17,57.17,0,0,0-5.55,2.52C1.42,46.58,0,47.26,0,48.07s1.75,2.17,2.61,2.69c.6.37,1.6.78,2.35,1.18s1.86.76,2,1.51a7.8,7.8,0,0,1-.42,2.35C6,58.19,5.5,60.6,5,62.54A87,87,0,0,0,3.36,72,90.69,90.69,0,0,0,2,81.79c-.1,1.75-.22,3.28-.42,5.13-.14,1.25-.59,4.48.25,4.79.63.23,1.86-.8,2.35-1.43a19.46,19.46,0,0,0,2-4.12c.66-1.52.94-3.15,1.51-4.62.49-1.27,1.54-2.37,2.1-3.7s.82-3.13,1.43-4.62c.44-1.06,1-2.08,1.51-3.11s.74-2.29,1.18-3.45c.26-.7.77-1.31,1-2,.42-1.25.68-2.44,1-3.45.19-.56.23-1.17.42-1.68.54-1.43,1.51-2.64,2-4,.58-1.52,1.06-3.78,2-4.46A14.3,14.3,0,0,1,23.54,50c2.28-.77,4.23-1.59,6.39-2.19,1.18-.33,2.19-.79,3.19-1.1C37,45.57,40.89,44.9,44.9,44.12c1.26-.24,2.68-.84,4-.25A11.73,11.73,0,0,1,47.42,47c-.55,1-1,2.1-1.51,3.19-2,4.29-4.23,8-5,13.7-.39,2.7-.68,5.81.34,8.41a10.83,10.83,0,0,0,1.6,2.52,19.43,19.43,0,0,0,1.85,2.35,23.61,23.61,0,0,0,2.27,1.43c1.21.89,2,2,3.11,2.36a8.47,8.47,0,0,0,3.36.33,14.5,14.5,0,0,0,6-2.44c.78-.55,1.67-1.15,2.44-1.77s1.77-1.17,2.52-1.77a14.47,14.47,0,0,0,3.78-4.46c.24-.55.18-1.19.34-1.6.29-.74,1.29-1.37,1.6-2.1A11.25,11.25,0,0,0,71,63.8c.07-1-.15-1.84-.17-2.86s-.3-1.82-.33-2.78c0-.79.26-1.45.17-2.18a12.19,12.19,0,0,0-.59-1.6,35.52,35.52,0,0,0-3.28-7.32c-1.33-2.17-3.26-4.54-5.55-5.55-1.27-.56-3.26-.37-5-.84-1.36-.37-2.48-1.42-3.79-1.43-.64,0-1.35.39-2,.42-2.1.11-4.17-.85-6.47-1.18-1.11-.16-2.34-.12-3.53-.25a49.75,49.75,0,0,0-9.33-.34c-1.87.16-3.82.56-5.55.08.1-2.74,1.64-4.93,2.35-7.23S29.63,26.18,30.44,23.86Zm20.1,40.7a73.64,73.64,0,0,1,3.19-10.09,16.45,16.45,0,0,1,1.43-3.2.59.59,0,0,1,.25-.17c.07,0,.08.08.17.08C57.22,55.09,57.49,61,55.5,65A22.78,22.78,0,0,1,52,70a4.77,4.77,0,0,1-2.78,1.68A30,30,0,0,1,50.54,64.55Z"/><path class="cls-2" d="M233.29,41.79c-.87-.46-1.32-1.35-2.12-2a17.68,17.68,0,0,1-1.74-1.18,8.38,8.38,0,0,1-1.5-3.3c-.36-1.15-1.13-2.29-1-3.57.85-.66,2.49.43,3.5,1a12.56,12.56,0,0,1,2.69,1.64,11.11,11.11,0,0,1,1,1.55A15.45,15.45,0,0,0,236.31,38c.71.6,2,1.67,2,2.35C238.18,41.83,234.79,41.43,233.29,41.79Z"/><path class="cls-2" d="M223.79,44.39a14.88,14.88,0,0,1,8.85,3.79,4.37,4.37,0,0,1,1.29,4.06,13.31,13.31,0,0,1-.92,1.9c-.28.64-.69,1.24-.92,1.81-.43,1.07-.69,2.34-1.18,3.51a35.42,35.42,0,0,0-1.45,5c-.11.43-.39.83-.53,1.29-.29,1-.34,2-.62,2.89-.13.41-.44.79-.62,1.21s-.27,1-.44,1.37a20.72,20.72,0,0,0-1.48,2.51c-.18.54-.28,1.27-.5,2-.56,1.82-1.16,3.67-1.75,5.64-.93,3.15-3,.95-4.31-.38-1.88-1.88-4-3.09-4-7.3a34.78,34.78,0,0,1,.82-5.85,40.17,40.17,0,0,1,1.52-5.21,85.36,85.36,0,0,1,3.48-9.93c.32-.68.92-1.53,1.31-2.5a10.16,10.16,0,0,0,1.05-2.66c0-1-.82-1.11-.77-2S223.23,44.51,223.79,44.39Z"/><path class="cls-2" d="M104.12,49.84a17.55,17.55,0,0,1,4.29-1.35,5.67,5.67,0,0,1,.67-1.68,22.12,22.12,0,0,0,1.44-2.46c.24-.54.53-1.07.79-1.55a1.67,1.67,0,0,1-.77.87c-1.26.53-3.07,0-4.72.06A34.53,34.53,0,0,0,96.38,45a21.33,21.33,0,0,1-4,1.2c1-2.9-2.15-5.22-4.76-5.66-1.22-.2-3.83-.34-4.36.38-.35.47-.09,1.46-.18,2.29-.35,3.1-1.72,5.63-2.72,8.36C79,55,77.76,58.93,76.57,62.39c-.62,1.81-.93,4-1.65,5.59-.5,1.07-2,1.79-2.07,3A3.63,3.63,0,0,0,74,73.61c1.38,1.4,2.27,2.61,3.47,4,.64.72,1,1.58,1.58,2.17.68.74,1.61,1.1,2.57,1.93.65.56,1.94,1.58,2.77,1.16s.47-2,.72-3.08c.15-.62.73-1.11.89-1.75.13-.47,0-1,.15-1.52a28.4,28.4,0,0,1,.72-3c.42-1.3,1.38-2.74,2-4.26.23-.58.33-1.25.55-1.81a26.07,26.07,0,0,1,2-3.68c.76-1.24,1.11-2.71,1.76-3.91s1.82-2.41,2.46-3.54a7.86,7.86,0,0,1,2-2.5,18,18,0,0,1,1.44-1.11,23.88,23.88,0,0,1,3-2.13C102.71,50.29,103.44,50.13,104.12,49.84Z"/><path class="cls-2" d="M165.4,74.45a82.81,82.81,0,0,0-8.72-6.7c-2.25-1.48-4.28-2.55-6.63-4-1-.6-1.91-1.43-3-2.18s-2.61-1.48-2.67-2.48c0-.76,1.33-1.79,1.93-2.32A16.54,16.54,0,0,1,148.87,55c3.76-2.28,6.7-4.54,10.43-6.63.82-.46,1.7-1.11,2.65-1.58a27.73,27.73,0,0,1,2.73-1.57,15,15,0,0,0,2.54-.6c1.36-.9,1.26-3.32.52-4.89A10.1,10.1,0,0,0,165,36.9a4.7,4.7,0,0,0-2.1-1c-1,0-2.18.81-3.21,1.15a28.66,28.66,0,0,0-5.94,3c-.8.47-1.55,1.37-2.58,1.41V41.3l-.26.11h-.06c0-1.22.66-1.9.85-2.9a10.89,10.89,0,0,0,0-1.46c.09-.33.2-.68.3-1,.28-.37.73-.69.89-1.13a16.31,16.31,0,0,0,.2-1.73c.16-.69.52-1.39.74-2.18s.47-1.46.74-2.18c.54-1.45.8-3.05,1.22-4.59s1-2.94,1.48-4.36A41.36,41.36,0,0,1,159,15.56c.47-.91,1.41-1.7,1.61-2.65.51-2.45-2.3-5.9-3.67-6.61-.46-.23-1.26-.32-2-.59s-1.4-.79-2.09-.67c-.93.16-1.89,2.89-2.63,4.29s-1.57,3-2.14,4.33c-.64,1.49-1.38,3-2,4.48s-1.37,3.1-1.88,4.56c-1.15,3.27-2.07,6.26-3.41,9.41-.65,1.53-1,3.11-1.7,4.71-.31.75-.65,1.49-.9,2.28s-.35,1.73-.63,2.58c-.44,1.34-1.22,2.65-1.66,4.13-.89,3-2,5.81-2.62,8.95-.24,1.17-.45,1.84-.69,2.83-.12.49-.12,1-.22,1.41-.26,1-.91,2.23-1.08,3.19-.09.48,0,1.13-.06,1.48s-.55,1.11-.77,1.77-.3,1.43-.5,2.08-.56,1.16-.69,1.77c-.24,1.18-.27,2.42-.55,3.64s-.69,2.19-.9,3.34c-.28,1.47-.26,3.16-.55,4.79,0,.11,0,.23,0,.34a22.72,22.72,0,0,0-.42,4.49v0c0,1.26-.16,3.78.27,4.81.28.68,3.21,3.62,4.18,3.46.58-.1.8-1,1.16-2,.26-.77.81-1.62,1-2.2s.18-1.35.36-1.83c.33-.86,1-1.33,1.24-2.05.11-.34.11-.87.23-1.33a9.79,9.79,0,0,0,.41-1.18c0-.33-.18-.79-.09-1.22.13-.63,1-1.14,1.09-1.8s-.14-1.33,0-1.8c.13-.64,1-1.33,1.25-1.89s.44-1.58.72-2.43a24.66,24.66,0,0,0,1-2.28c.2-.91.16-2,.36-3,.08-.38.35-.72.41-1.1s-.09-.78,0-1.14c.13-.55.83-.93,1.2-1.56s.47-1.19.77-1.6c.16-.08.34-.24.46-.16a7.57,7.57,0,0,1,1.18,1,46.55,46.55,0,0,0,6.61,5c.84.52,1.54,1.11,2.43,1.58s1.84.83,2.83,1.36c2.43,1.3,5.31,3,8.19,4.24.75.33,2.27,1.21,2.81.59C167.68,76.25,166,75,165.4,74.45Z"/><path class="cls-2" d="M343.71,43.84c-.13.29-.67.16-1.05.19-.28.18-.18.73-.37,1a10,10,0,0,0-1.61,1c-1,.49-2,.53-2.91.93a18.36,18.36,0,0,0-2.85,1.92,14.13,14.13,0,0,0-2.36,1.74c-.28.3-.5.7-.8,1.05a10.42,10.42,0,0,0-.93.93c-.27.41-.46,1-.74,1.49a4.06,4.06,0,0,0-.93,2.66,7,7,0,0,0,.49,2.11A20.4,20.4,0,0,0,332,62.51c1.65,2.32,3.59,4.29,4.53,7.44a17.47,17.47,0,0,1,1.18,4.78c0,.42-.15.81-.19,1.24s0,1,0,1.43a13.13,13.13,0,0,1-1.3,4c-.24.44-.68.87-1,1.37a10.17,10.17,0,0,1-.93,1.36c-.34.38-.83.64-1.18,1s-.54.82-.87,1.12-.8.44-1.18.74a17.82,17.82,0,0,1-3.16,2.48c-.47.21-1,.25-1.49.5s-.78.59-1.18.75-1.05.21-1.55.37a8.81,8.81,0,0,1-1.43.5,30.71,30.71,0,0,0-3.53.06c-.78.17-1.46.9-2.61.74-.59-.08-.75-.58-1.3-.8s-1.38-.1-1.49-.62c-.15-.74,1.8-1.81,2.17-2.17,2.36-2.27,4-4.5,6.45-6.57a35.83,35.83,0,0,0,4.15-4.53c1.73-2.14,4-4.29,3-8.19-.51-2.12-2-3.9-3.1-5.89a29.83,29.83,0,0,1-2.67-6.26,18.6,18.6,0,0,1-.68-3.72,16.24,16.24,0,0,1,5.15-13.33,34.81,34.81,0,0,1,4.71-3.78,15.15,15.15,0,0,1,2.67-1.61c.47-.16.65.09,1.3.19.44.06.89-.07,1.12,0,.53.15.73,1.18,1.67,1.05,0,.64.84.77,1.24,1.3s.47,1,.81,1.43,1.34,1,1.55,1.61c.16.48.06,1,.19,1.42C343.28,42.52,344.23,43,343.71,43.84Z"/><path class="cls-2" d="M93.19,94c.16-.77.89-1.06,1.32-1.44a42.81,42.81,0,0,0,4-4.14c.86-1,1.55-2.11,2.4-3.06s1.86-1.71,2.7-2.7c.42-.5.79-1.06,1.2-1.56,1.22-1.48,2.44-2.93,3.72-4.5a15.07,15.07,0,0,0,3.6-7.38c.57-3.35-.28-6.25-1.38-9.12A31.62,31.62,0,0,1,108.85,51a13.49,13.49,0,0,1,3.6-10.68,14.64,14.64,0,0,1,2.4-1.92c.92-.68,1.71-1.46,2.7-2.1a19.51,19.51,0,0,1,3-1.8c1-.4,2-.7,3.18-1.08a6.63,6.63,0,0,1,2.16.18c.63.21,1.06,1.25,1.5,1.92s1.19,1.38,1.44,1.92c.11.23.08.56.18.84.2.56.56.91.6,1.32a3.33,3.33,0,0,1-1.86,3.06,6.33,6.33,0,0,1-1.32.06c-1.26.14-1.95.86-2.94,1.32-.26.12-.58.13-.84.24s-.66.4-1,.6c-.83.44-1.47.95-2.28,1.44a17.64,17.64,0,0,0-3.6,2.82,7.81,7.81,0,0,0-1,1.2c-.55.85-1.41,1.67-1.44,3a8.75,8.75,0,0,0,.78,3c.53,1.33,1.31,2.49,1.92,3.72s1.19,2.53,1.74,3.84a27.56,27.56,0,0,1,1.92,9.3,11.33,11.33,0,0,1-.12,3c-.1.48-.31.73-.42,1.32a17.43,17.43,0,0,1-.42,2.4,14.29,14.29,0,0,1-3.12,5h-.9c-.86.62-1.65,1.22-2.52,2a13.61,13.61,0,0,1-2.34,2.16c-.39.2-.87.25-1.26.42-.71.31-1.17.91-1.8,1.2a20.32,20.32,0,0,1-2.46.78c-.44.14-.76.56-1.2.72s-.84.22-1.26.36-.83.33-1.2.42a12.55,12.55,0,0,0-1.32.18c-.69.24-1.37,1.28-2.22,1.26-.58,0-.94-.63-1.56-.66C94.61,93.7,94,94.71,93.19,94Z"/><path class="cls-1" d="M392.62,4.12l-.43.25h0l.43-.26c-.25-.39-.62-1.34-1.71-1.36h-.13c-.43.06-.61.33-.83.6a15.53,15.53,0,0,0-1.45,2.81c-1.61,3.79-3.42,7.89-5.1,11.82a116.5,116.5,0,0,0-4.64,12.37c-.87,2.9-2,5.77-2.69,8.63-.11.44-.2,1-.31,1.36a2.23,2.23,0,0,1-.17.46l0,0a4.49,4.49,0,0,1-1.24-.64,7.49,7.49,0,0,0-1.62-1.1c-.6-.18-1.15-.11-1.54-.21s-.9-.27-1.39-.37a10.26,10.26,0,0,0-2-.19,12.18,12.18,0,0,0-6,1.77,25,25,0,0,0-5.52,4.3,46.73,46.73,0,0,0-4.9,6.34,34.75,34.75,0,0,0-4.77,10.08,39.83,39.83,0,0,0-1.95,10.87c0,.59,0,1.18.08,1.77.36,3.91,1.93,6,3.18,8.58a12.85,12.85,0,0,0,1.48,2.48,5.35,5.35,0,0,0,4.29,1.85,12.14,12.14,0,0,0,4.86-1.2A37.3,37.3,0,0,0,367,80.27a5.58,5.58,0,0,1,1.26-1c0,.53.07,1.06.06,1.6a54.16,54.16,0,0,1-.57,6.33,13.84,13.84,0,0,0-.21,1.61,1.74,1.74,0,0,0,.54,1.35l.13.12h.3c1.55-.06,2.07-1.58,2.41-2.39s.37-1.51.56-2.18c.71-2.59,1.54-5.44,2.2-8.07.24-1,.41-1.92.65-2.8.45-1.67,1.26-3.31,1.71-5,.16-.64.2-1.22.34-1.73.74-2.78,1.55-5.63,2.4-8.28.37-1.15.6-2.27.92-3.36.11-.4.41-.84.59-1.47.73-2.79,1.77-5.35,2.57-7.91.36-1.16.51-2.3.84-3.34.27-.87.81-1.72,1.11-2.78.15-.57.15-1.1.28-1.5.21-.7.61-1.46.9-2.36s.35-1.85.59-2.66c.35-1.21,1.07-2.42,1.42-3.69.27-1,.4-1.9.71-2.78a99.53,99.53,0,0,0,3.89-13.62,53.78,53.78,0,0,0,1.08-5.73c0-.3,0-.58,0-.84A6.57,6.57,0,0,0,392.62,4.12ZM367.7,57.85a8.43,8.43,0,0,1-.07,1.24c0,.29-.33.8-.5,1.4-.55,2.18-.77,4.6-1.46,6.31a21.9,21.9,0,0,1-4.1,5.87,17.9,17.9,0,0,1-6.47,5.07,8.94,8.94,0,0,1-3.22,1,1.19,1.19,0,0,1-1.27-.8,3.79,3.79,0,0,1-.18-1.3,20.65,20.65,0,0,1,.47-3.74c.24-1.2.71-2.63,1.09-3.91a46.36,46.36,0,0,1,2.84-7.87c.29-.56.84-1.17,1.29-1.93,1.77-3.05,3.42-5.77,6-7.95a7.62,7.62,0,0,1,2.76-1.57,1.36,1.36,0,0,1,.31,0h.1c.78,0,2.1.5,2.17.79a3.11,3.11,0,0,1,.28,1.47c0,.81-.14,1.73-.15,2.53,0,.11,0,.22,0,.34C367.63,55.87,367.71,56.94,367.7,57.85Zm.43-3.39h0Z"/><path class="cls-2" d="M312.88,47.34c-.59-1.11-2.12-.36-3-.83-.62-.35-.73-1.37-1.12-1.95a8.77,8.77,0,0,0-2-1.66,9.35,9.35,0,0,0-5.36-2,11.92,11.92,0,0,0-3.94.17,9.33,9.33,0,0,0-3.37,2,33.76,33.76,0,0,0-4.88,3.79,37.51,37.51,0,0,0-4.81,7.56,82.27,82.27,0,0,0-3.92,8.28,38.94,38.94,0,0,0-2,6.08c-.46,2.24-1.08,4.89-.82,7,.23,1.93,1.52,4.95,2.45,5.75.39.34,1.27.39,1.81.87s.87,1.95,1.59,2.16a5.43,5.43,0,0,0,2.63-.57A12.41,12.41,0,0,0,292,79.84c1-1.18,2.1-2.33,3-3.49,1.45-1.82,2.55-4,4.14-5.6.5-.5,1-1.3,1.82-1.37,0,2.56-1.48,4.58-1.86,6.6-.1.5,0,1.05-.09,1.63a23,23,0,0,1-1,3c-2.32,7.3-5.24,14.95-7.79,21.85-.31.84-.5,1.69-.79,2.52-2.51,7-2.31,5-5.68,11.56-3.14,6.16-9.26,10.65-6.39,11.69,2.71,1.75,16.95-12.35,18.35-18.75l.24-.35c1.74-4,1.33-3.76,2.8-7,1-2.19,1.52-4.91,2.39-6.75.26-.56.81-1,1-1.55s.09-1.13.26-1.65c.23-.69.93-1.23,1.13-1.93.27-.94.2-1.9.5-2.76s.85-1.57,1.08-2.37c.13-.47.06-1,.19-1.46s.68-1.05.81-1.62,0-1.24.15-1.82c.37-1.59,1.15-3,1.47-4.48.08-.36,0-.91.12-1.36.44-2.07,1.18-4.21,1.7-6.4s.8-4.52,1.2-6.88c.19-1.12.42-2.24.61-3.4s.14-2.3.31-3.63c.12-1,.45-2.07.71-3.32S313.28,48.08,312.88,47.34Zm-11.27,6.94A83.06,83.06,0,0,1,295.78,64c-.43.6-1,1.14-1.42,1.78s-.72,1.34-1.12,2c-.31.53-.87,1-1.27,1.49s-.61,1.23-1,1.73a27,27,0,0,1-2.81,3c-1,1-1.86,2.15-3.11,2.69-.17-1.81.74-3.62,1.36-5.46s.92-3.73,1.64-5.41c.56-1.3,1.4-2.53,2-4s1.15-2.86,1.78-4.16c1.86-3.87,3.25-7.39,7.23-9.28,1.06-.51,1.09.75,2.22,1.37.78.42,2,.44,2.1,1S302.06,53.43,301.61,54.28Z"/><path class="cls-2" d="M254.84,51.43a10.91,10.91,0,0,0,3-2.16,21.78,21.78,0,0,1,8.08-4.89,8.54,8.54,0,0,1,2.06-.57,8.82,8.82,0,0,1,2.23.47c.68.18,1.35.45,2.1.64,1.41.36,3.17.48,3.71,1.77.46,1.1.3,4.06.17,5.19-.38,3.31-1.64,6-2.63,9.15-.44,1.41-1.08,2.87-1.56,4.37s-.72,3.29-1.23,4.64c-.32.84-1.14,1.68-1.56,2.71-.13.31-.14.71-.28,1.08a9.19,9.19,0,0,0-.48,2.16c-.1.69-.39,1.56-.46,2.38a5.68,5.68,0,0,1-.46,2.38c-.25.37-.84.56-1.27.95-.62.55-.71,1.3-1.39,1.33-.92,0-1.71-2-2.08-2.9a11.46,11.46,0,0,1-.91-4.22A52.47,52.47,0,0,1,262.94,64a48.08,48.08,0,0,1,1.33-5.25,17.26,17.26,0,0,0,1.25-5.32c-2.21.5-3,2.47-4.42,3.65-.37.31-.84.46-1.21.79s-.8.94-1.23,1.39a40.7,40.7,0,0,0-3.49,4.7c-.77,1.09-1.66,2.2-2.34,3.31-.91,1.49-1.66,3.08-2.6,4.54-.46.71-1,1.36-1.55,2s-.89,1.49-1.39,2.17c-.31.42-.74.8-1.09,1.23s-.59.93-.94,1.29-1,.81-1.55,1.27-.82,1.11-1.3,1.48a7.86,7.86,0,0,1-1.94,1.08c-1.49.08-2.18-2.64-2.85-3.89s-1.67-2-1.87-3.07a13.51,13.51,0,0,1,.38-3.28c.16-1.12.31-2.25.54-3.14.56-2.14,1-4.18,1.57-5.88.17-.51.55-1.06.69-1.5s.23-1.24.37-1.69c.22-.68.67-1.33.95-2,.81-2.13,1.55-4.51,2.42-6.49.61-1.39,1.28-2.72,1.89-4.1.88-2,1.86-3.47,2.65-5.68.26-.71.11-1.71,1-1.82a13.3,13.3,0,0,1,4.2.52A13.67,13.67,0,0,1,255.71,42c.75.52,2.34,1.83,2.37,2.8s-1.47,2-1.87,2.66A26.42,26.42,0,0,0,254.84,51.43Z"/><path class="cls-1" d="M501.37,68.23l-.24-.1-.22.14c-.87.56-1.72,1.12-2.52,1.54-4.86,2.56-9.4,5.45-15.23,7a15.21,15.21,0,0,1-3.62.72,2.65,2.65,0,0,1-1.12-.21A3.34,3.34,0,0,1,477.29,75a1.15,1.15,0,0,1,.08-.46,6,6,0,0,1,1.12-.62,44.4,44.4,0,0,0,4.07-2.65,40.06,40.06,0,0,0,5-3.87c.8-.66,1.62-1.35,2.36-2.06,1.48-1.41,3.06-2.84,4.4-4.33.74-.82,1.26-1.69,1.92-2.46.43-.51,1.25-1,1.78-1.69a17.94,17.94,0,0,0,1.67-2.58,34.35,34.35,0,0,0,1.23-3.77,8.7,8.7,0,0,0,.59-1.21c.09-.46,0-.87.07-1.17a7.36,7.36,0,0,0,.15-1.09c0-.06,0-.11,0-.12a11.6,11.6,0,0,0-.36-1.29,10.49,10.49,0,0,0-.15-1.24c-.46-1.49-1.82-3.49-3.7-3.93a5.69,5.69,0,0,0-1.13-.09l-.64,0A18.63,18.63,0,0,0,490,42.22a51,51,0,0,0-4.85,2.54,54,54,0,0,0-8.2,6.33,34.47,34.47,0,0,0-8.89,12.5,15.08,15.08,0,0,0-1.23,6.2c0,.48,0,1,.06,1.46.05.67.22,1.37.22,1.71,0,0,0,.07,0,.13,0,.24-.59.75-.65,1.63a1,1,0,0,0,0,.27c.32,1.08,1.48,1.25,1.56,1.54.77,1.07,1.15,2.28,2,3.37a12,12,0,0,0,9.63,4.93,14.61,14.61,0,0,0,2.35-.2,21,21,0,0,0,5.88-1.9,79.16,79.16,0,0,0,7-4.21c.81-.54,1.39-1.15,2.06-1.62a28.26,28.26,0,0,0,4.18-3.36c.48-.58.61-1,.87-1.11l.3-.12,0-.32c0-.6.14-1.21.14-1.8A1.9,1.9,0,0,0,501.37,68.23ZM479.12,58l.47.17A19.68,19.68,0,0,1,481,55.66c.75-1.38,1-2.39,2-3.27.32-.29.91-.59,1.46-1s.92-.82,1.34-1.13a14,14,0,0,1,6.61-3c.24,0,.46,0,.68,0a3.43,3.43,0,0,1,1.7.35.89.89,0,0,1,.5.81,2,2,0,0,1-.21.8,12.11,12.11,0,0,1-1.62,2.34,67.64,67.64,0,0,1-7.44,7.12c-.34.3-.62.61-.89.81a9.19,9.19,0,0,0-1,.76c-.37.41-.58.94-.68,1s-.69.29-1.21.62-.85.81-1.23,1.1a15.63,15.63,0,0,0-1.39,1c-.38.42-.49.83-.65,1A9.79,9.79,0,0,1,477.68,66a8.61,8.61,0,0,1-.7.53,47.58,47.58,0,0,1,2.61-8.33Z"/><path class="cls-2" d="M588.13,46.66c-.09-.41-.46-.87-.58-1.38s0-.77-.08-1.18-.33-.82-.42-1.24a5.84,5.84,0,0,0-.25-1.37c-.43-.73-2.85-1.9-5.14-1.77-.05,0-.09.07-.08.07h-.16a15.12,15.12,0,0,0-3.15.72c-.52.1-1.07,0-1.57.13a28.21,28.21,0,0,0-8.87,3.08,34.51,34.51,0,0,0-3.32,2.55A15.44,15.44,0,0,0,563,47.65c-.48.49-1.07.91-1.58,1.37a47.85,47.85,0,0,0-4.15,4.46c-.48.58-1.09,1.06-1.41,1.51-.91,1.26-1.68,2.72-2.57,4.06A42.71,42.71,0,0,0,551,63.38c-1.5,2.94-3,6.33-2.65,10.22a14.48,14.48,0,0,0,.75,3.54c.87,2.45,1.62,3.91,3.56,5.44,1.63,1.28,2.69,2.44,5.22,2.88a20.35,20.35,0,0,0,4.73.26,36.76,36.76,0,0,0,6.22-1.57c.89-.36,1.3-1,2.07-1.31a26.07,26.07,0,0,0,7-4,31.87,31.87,0,0,0,2.74-3c.44-.53,2.92-2.54,1.91-3.34-.74-.59-2.31.35-3.07.59s-1.46.33-2,.52c-1.37.5-2.77,1.4-4.39,2-1.47.57-3.15,1.4-4.73,1.84-1.18.33-2.77.6-4.14.91s-3.47.56-4.31-.06a2.5,2.5,0,0,1-.66-2.49c.31-.85,2.22-1.41,3.49-2s2.85-1.5,3.57-1.9c1.15-.64,2.29-1.4,3.32-2.1,3.32-2.26,6.09-4.45,9.37-6.88a29.18,29.18,0,0,0,2.74-2.56,27.42,27.42,0,0,0,5-6.88,13.3,13.3,0,0,0,1-1.64,17.44,17.44,0,0,0,.33-2.62A8.48,8.48,0,0,0,588.13,46.66Zm-8.68,4.67c-2.25,1.84-4.39,3.51-6.85,5.39-1.19.91-3.23,1.67-4.31,2.69-.29.28-.56.84-.8,1-.5.39-1.3.49-1.87.86s-1,1-1.67,1.42a18.16,18.16,0,0,1-2.15,1.09,4.49,4.49,0,0,1-2.28.71c1.4-3.5,4.18-6,6.75-9.18a35.68,35.68,0,0,1,4.36-4.27c1.59-1.38,3.59-2.95,6.56-2.8.57,0,1.17.24,1.83.27s2.29-.39,2.43.54C581.54,49.79,580.13,50.78,579.46,51.33Z"/></svg>