<svg version="1.1" id="gfx-grid" xmlns="http://www.w3.org/2000/svg" xmlns:xlink="http://www.w3.org/1999/xlink" x="0px" y="0px"
   viewBox="0 0 55.5 100" enable-background="new 0 0 55.5 100" xml:space="preserve">
<g id="gfx-grid-dots">
  <polygon fill="#D8D9D8" points="25.7,80.8 25.7,83 27.6,84 29.4,83 29.4,80.8 27.6,79.7   "/>
  <polygon fill="#D8D9D8" points="57.1,35 57.1,32.9 55.2,31.8 53.4,32.9 53.4,35 55.2,36.1   "/>
  <polygon fill="#D8D9D8" points="57.1,3.1 57.1,0.9 55.2,-0.1 53.4,0.9 53.4,3.1 55.2,4.1  "/>
  <polygon fill="#D8D9D8" points="29.4,51 29.4,48.9 27.5,47.8 25.7,48.9 25.7,51 27.5,52.1   "/>
  <polygon fill="#D8D9D8" points="29.4,19 29.4,16.9 27.5,15.8 25.7,16.9 25.7,19 27.5,20.1   "/>
  <polygon fill="#D8D9D8" points="53.4,64.8 53.4,67 55.2,68 57.1,67 57.1,64.8 55.2,63.8   "/>
  <polygon fill="#D8D9D8" points="1.7,35 1.7,32.9 -0.1,31.8 -2,32.9 -2,35 -0.1,36.1   "/>
  <polygon fill="#D8D9D8" points="1.7,3.1 1.7,0.9 -0.1,-0.1 -2,0.9 -2,3.1 -0.1,4.1  "/>
  <polygon fill="#D8D9D8" points="-2,64.8 -2,67 -0.1,68 1.7,67 1.7,64.8 -0.1,63.8   "/>
  <polygon fill="#D8D9D8" points="55.2,95.7 55.2,95.7 55.2,95.7 55.2,95.7 53.3,96.8 53.3,98.9 55.2,100 55.2,100 55.2,100
    55.2,100 55.2,100 57.1,98.9 57.1,96.8 55.2,95.7   "/>
  <polygon fill="#D8D9D8" points="-0.1,95.7 -0.1,95.7 -0.1,95.7 -0.1,95.7 -2,96.8 -2,98.9 -0.1,100 -0.1,100 -0.1,100 -0.1,100
    -0.1,100 1.7,98.9 1.7,96.8 -0.1,95.7  "/>
</g>
<g id="gfx-grid-paths">
  <polygon fill="#D8D9D8" points="55.4,97.9 54.9,97.9 54.9,65.7 55.4,65.7 55.4,65.9   "/>
  <polygon fill="#D8D9D8" points="0.1,97.9 -0.4,97.9 -0.4,65.7 0.1,65.7 0.1,65.9  "/>
  <path fill="none" stroke="#D8D9D8" stroke-width="0.5" stroke-miterlimit="10" d="M-0.1,97.9"/>
  <polygon fill="#D8D9D8" points="27.4,50.2 -0.4,34.1 -0.4,1.6 27.6,17.8 27.4,18.2 0.1,2.4 0.1,33.8 27.6,49.7   "/>
  <path fill="#D8D9D8" d="M-0.4,66.3c0.2-0.3,0.3-0.6,0.5-0.9l27.6-16v0L55,33.8L55,2h0.5l0,32.1L27.3,50.4v0L-0.4,66.3z"/>
  <polygon fill="#D8D9D8" points="55.1,66.1 27.3,50.1 27.3,17.8 27.4,17.8 55.1,1.8 55.3,2.2 27.8,18.1 27.8,49.8 55.3,65.7   "/>
  <path fill="none" stroke="#D8D9D8" stroke-width="0.5" stroke-miterlimit="10" d="M55.2,97.9"/>
  <path fill="none" stroke="#D8D9D8" stroke-width="0.5" stroke-miterlimit="10" d="M-0.1,97.9"/>
  <polygon fill="#D8D9D8" points="-0.5,98.4 -0.4,97.8 -0.1,97.9 -0.3,97.7 27.3,81.7 27.3,49.9 27.8,49.9 27.8,81.7 55.3,97.7
    55.1,98.1 27.6,82.2   "/>
  <path fill="none" stroke="#D8D9D8" stroke-width="0.5" stroke-miterlimit="10" d="M55.2,97.9"/>
</g>
</svg>
